<svg width="129" height="22" viewBox="0 0 129 22" fill="none" xmlns="http://www.w3.org/2000/svg">
<g clip-path="url(#clip0_1148_644)">
<path d="M49.3791 9.21099L49.4018 12.0162H53.6116C53.384 12.9218 52.9062 13.6066 52.1552 14.1146C51.4043 14.6005 50.5396 14.8435 49.5611 14.8435C48.4006 14.8435 47.4221 14.4018 46.6029 13.5182C45.7837 12.6347 45.3969 11.5524 45.3969 10.3154C45.3969 9.07846 45.8065 7.99613 46.6029 7.1126C47.4221 6.22906 48.4006 5.7873 49.5611 5.7873C50.8127 5.7873 51.9504 6.31742 52.9744 7.33348L54.5218 4.99212C53.0655 3.6889 51.4271 3.04834 49.5611 3.04834C47.6042 3.04834 45.9203 3.77726 44.5094 5.213C43.0986 6.64874 42.416 8.34955 42.416 10.3154C42.416 12.2813 43.1214 14.0042 44.5094 15.4399C45.8975 16.8757 47.5814 17.6046 49.5611 17.6046C51.7229 17.6046 53.475 16.8977 54.7949 15.5062C56.1147 14.1146 56.7746 12.3475 56.7746 10.2271C56.7746 9.91782 56.7518 9.58649 56.7063 9.23308H49.3791V9.21099Z" fill="white"/>
<path d="M73.0219 3.04834H68.3115V17.6046H73.0901C75.4112 17.6046 77.2999 16.9419 78.688 15.5945C80.0988 14.2692 80.7814 12.5242 80.7814 10.3375C80.7814 8.15075 80.0533 6.40577 78.5969 5.05838C77.1861 3.71099 75.3202 3.04834 73.0219 3.04834ZM76.4579 13.6508C75.5705 14.5122 74.4099 14.954 72.9991 14.954H71.2697V5.65477H73.0901C74.501 5.65477 75.6387 6.09653 76.4807 6.95798C77.3454 7.84151 77.7777 8.94593 77.7777 10.3154C77.7777 11.6849 77.3226 12.7893 76.4579 13.6508Z" fill="white"/>
<path d="M62.1903 7.92969C60.8023 7.92969 59.6417 8.39354 58.686 9.32125C57.7303 10.249 57.2524 11.3976 57.2524 12.7449C57.2524 14.1144 57.7303 15.263 58.6633 16.1907C59.5962 17.1184 60.8023 17.5823 62.2358 17.5823C63.6694 17.5823 64.8527 17.1184 65.7857 16.2128C66.7186 15.3072 67.1738 14.1365 67.1738 12.7449C67.1738 11.4196 66.6959 10.2711 65.7174 9.34334C64.7617 8.41563 63.5784 7.92969 62.1903 7.92969ZM63.988 14.5562C63.5329 15.0421 62.9413 15.2851 62.1903 15.2851C61.4849 15.2851 60.916 15.0421 60.4609 14.5341C60.0058 14.0261 59.7555 13.4518 59.7555 12.767C59.7555 12.0823 60.0058 11.508 60.4609 11.0221C60.9388 10.5361 61.5077 10.2931 62.1676 10.2931H62.1903C62.9185 10.2931 63.5101 10.5361 63.9653 11.0221C64.4204 11.508 64.6707 12.1044 64.6707 12.767C64.6707 13.4739 64.4431 14.0702 63.988 14.5562Z" fill="white"/>
<path d="M89.0189 9.03411C88.2907 8.2831 87.3577 7.92969 86.2427 7.92969C84.9002 7.92969 83.7851 8.39354 82.8977 9.32125C82.0102 10.249 81.5779 11.3976 81.5779 12.7891C81.5779 14.1807 82.0102 15.3293 82.8977 16.2349C83.7851 17.1405 84.9002 17.6044 86.2427 17.6044C87.3805 17.6044 88.2907 17.251 89.0189 16.5L89.0871 17.4498H91.5447V8.12848H89.1327L89.0189 9.03411ZM88.359 14.5783C87.9039 15.0642 87.335 15.3293 86.6523 15.3293C85.9469 15.3293 85.378 15.0863 84.9229 14.6004C84.4678 14.1144 84.263 13.518 84.263 12.8112C84.263 12.1044 84.4906 11.4859 84.9229 11C85.378 10.514 85.9469 10.249 86.6296 10.249H86.6523C87.3577 10.249 87.9266 10.4919 88.359 11C88.7913 11.4859 89.0189 12.1044 89.0189 12.8112C89.0189 13.496 88.7913 14.0923 88.359 14.5783Z" fill="white"/>
<path d="M98.2575 8.08447C97.0287 8.08447 96.0958 8.45998 95.4359 9.21098L95.2993 8.26118H92.9328V17.5825H95.4586V12.9439C95.4586 12.1929 95.6407 11.5523 96.0048 11.0443C96.3688 10.5363 96.9377 10.2712 97.6886 10.2712C98.2575 10.2712 98.6671 10.47 98.9402 10.8676C99.2133 11.2652 99.3498 11.7953 99.3498 12.4359V17.5825H101.898V12.1046C101.898 10.8234 101.603 9.82945 100.988 9.12263C100.351 8.43789 99.4636 8.08447 98.2575 8.08447Z" fill="white"/>
<path d="M108.111 15.175C107.337 15.175 106.745 14.9542 106.336 14.4903C105.926 14.0264 105.744 13.4301 105.767 12.6791C105.812 11.9722 106.063 11.3979 106.518 10.9562C106.973 10.5144 107.564 10.2935 108.247 10.2935C108.93 10.2935 109.772 10.6469 110.727 11.3538L111.751 9.34371C110.705 8.416 109.499 7.95215 108.111 7.95215C106.632 7.95215 105.448 8.43809 104.538 9.38789C103.628 10.3377 103.15 11.5305 103.15 12.9662C103.15 14.3136 103.605 15.418 104.493 16.2795C105.38 17.1409 106.563 17.6048 108.042 17.6048C109.385 17.6048 110.682 17.1188 111.911 16.169L110.932 14.0927C109.886 14.7995 108.93 15.175 108.111 15.175Z" fill="white"/>
<path d="M121.741 12.3474C121.718 11.0662 121.309 10.0281 120.535 9.18872C119.761 8.34937 118.646 7.92969 117.19 7.92969C115.825 7.92969 114.687 8.39354 113.822 9.29916C112.957 10.2048 112.502 11.3755 112.502 12.7449C112.502 14.1586 112.98 15.3072 113.913 16.2128C114.846 17.1184 116.007 17.5823 117.349 17.5823C118.282 17.5823 119.124 17.4277 119.83 17.1405C120.558 16.8534 121.013 16.6104 121.24 16.3895L120.285 14.4899C119.329 15.1084 118.328 15.3956 117.327 15.3293C116.758 15.2851 116.257 15.1305 115.825 14.8433C115.392 14.5562 115.096 14.1365 114.96 13.6064L121.627 13.5843C121.718 13.1867 121.741 12.767 121.741 12.3474ZM114.983 11.7951C115.096 11.265 115.347 10.8453 115.734 10.5361C116.12 10.2269 116.598 10.0723 117.213 10.0723C117.873 10.0723 118.351 10.249 118.669 10.6024C118.988 10.9558 119.17 11.3534 119.238 11.8172L114.983 11.7951Z" fill="white"/>
<path fill-rule="evenodd" clip-rule="evenodd" d="M28.0573 0C27.1244 0 26.2141 0.110442 25.3494 0.309237C30.97 0.662651 35.43 5.21285 35.43 10.757C35.43 16.5442 30.6059 21.2269 24.644 21.2269C24.3937 21.2269 24.1434 21.2269 23.9158 21.2048C25.1901 21.6908 26.601 21.9779 28.0573 21.9779C34.315 21.9779 39.3895 17.0522 39.3895 10.9779C39.3667 4.9257 34.2923 0 28.0573 0Z" fill="url(#paint0_linear_1148_644)"/>
<path fill-rule="evenodd" clip-rule="evenodd" d="M2.18439 16.9417C0.546009 10.6024 3.16287 6.80319 8.94273 5.43372C12.2878 4.63854 15.9514 5.4558 18.4772 3.02609C19.2736 2.25299 19.797 1.25902 19.797 0.0220693C17.9083 0.0220693 16.0196 0.0220693 14.1082 0.0220693C4.7785 -0.441786 -4.30088 7.37749 2.18439 16.9417Z" fill="url(#paint1_linear_1148_644)"/>
<path fill-rule="evenodd" clip-rule="evenodd" d="M25.3494 0.331543C22.0727 1.10464 19.3648 3.24721 17.9084 6.11869H24.2344C25.3039 5.3456 26.6237 4.88174 28.0573 4.88174C31.5389 4.88174 34.3833 7.6207 34.3833 11.0223C34.3833 14.4018 31.5616 17.1629 28.0573 17.1629C25.4632 17.1629 23.2559 15.6609 22.2775 13.4962C22.2547 11.8396 22.2775 10.205 22.6871 8.59259C22.6871 8.59259 18.9097 8.5705 16.6797 8.5705C13.3346 8.5705 10.695 10.0946 10.4675 13.4299C12.4472 13.452 14.4269 13.452 16.4066 13.4741C16.4066 14.5123 16.3838 15.5504 16.3838 16.5886C10.1261 19.0846 3.09472 13.0765 7.09966 7.8195C8.3512 6.16287 9.48897 5.74319 11.3549 5.08054C10.5357 5.1468 9.73928 5.25725 8.94284 5.43395C3.18574 6.80343 0.56888 10.5805 2.18451 16.8757C2.18451 16.8978 2.20726 16.9199 2.20726 16.942C4.34627 19.8135 8.28294 21.6468 11.8783 21.956C15.0868 22.2211 18.2953 21.4038 21.3445 19.8576C22.1182 20.4099 22.9829 20.8737 23.8931 21.2271C24.1434 21.2492 24.371 21.2492 24.6213 21.2492C30.5832 21.2492 35.4073 16.5665 35.4073 10.7793C35.4301 5.21307 30.97 0.684957 25.3494 0.331543Z" fill="url(#paint2_linear_1148_644)"/>
<path d="M123.948 8.39354H122.947V7.92969H125.518V8.39354H124.517V10.8674H123.948V8.39354Z" fill="white"/>
<path d="M129 7.92969L127.68 10.8674H127.134L125.814 7.92969H126.429L127.43 10.1827L128.454 7.92969H129Z" fill="white"/>
</g>
<defs>
<linearGradient id="paint0_linear_1148_644" x1="34.847" y1="1.98159" x2="25.3997" y2="21.9363" gradientUnits="userSpaceOnUse">
<stop stop-color="#C83C87"/>
<stop offset="0.3492" stop-color="#EB5D8D"/>
<stop offset="1" stop-color="#E40059"/>
</linearGradient>
<linearGradient id="paint1_linear_1148_644" x1="28.0576" y1="-9.27922" x2="1.86328" y2="12.179" gradientUnits="userSpaceOnUse">
<stop stop-color="#432682"/>
<stop offset="0.32" stop-color="#6A2382"/>
<stop offset="0.56" stop-color="#A21780"/>
<stop offset="0.77" stop-color="#E40059"/>
<stop offset="1" stop-color="#EB5F8D"/>
</linearGradient>
<linearGradient id="paint2_linear_1148_644" x1="2.63593" y1="11.1351" x2="36.8866" y2="11.1346" gradientUnits="userSpaceOnUse">
<stop stop-color="#432682"/>
<stop offset="0.3839" stop-color="#A21780"/>
<stop offset="0.598" stop-color="#E40059"/>
<stop offset="0.7859" stop-color="#A21780"/>
<stop offset="1" stop-color="#432682"/>
</linearGradient>
<clipPath id="clip0_1148_644">
<rect width="129" height="22" fill="white"/>
</clipPath>
</defs>
</svg>
